<?xml version="1.0" encoding="utf-8"?>
<!-- Generator: Adobe Illustrator 16.0.0, SVG Export Plug-In . SVG Version: 6.00 Build 0)  -->
<!DOCTYPE svg PUBLIC "-//W3C//DTD SVG 1.1//EN" "http://www.w3.org/Graphics/SVG/1.1/DTD/svg11.dtd">
<svg version="1.1" id="Layer_1" xmlns="http://www.w3.org/2000/svg" xmlns:xlink="http://www.w3.org/1999/xlink" x="0px" y="0px"
	 width="128px" height="128px" viewBox="0 0 128 128" enable-background="new 0 0 128 128" xml:space="preserve">
<g>
	<g>
		<path fill="#282D33" d="M56.794,119.664H18.417c-3.144,0-5.702-2.544-5.702-5.671V5.669C12.716,2.543,15.273,0,18.417,0h51.861
			c3.144,0,5.701,2.543,5.701,5.669v61.397h-3.997V5.669c0-0.922-0.765-1.672-1.704-1.672H18.417c-0.94,0-1.704,0.75-1.704,1.672
			v108.324c0,0.924,0.764,1.674,1.704,1.674h38.377V119.664z"/>
	</g>
	<g>
		<rect x="21.12" y="99.143" fill="#282D33" width="39.73" height="3.997"/>
	</g>
	<g>
		<rect x="21.12" y="15.606" fill="#282D33" width="46.453" height="3.997"/>
	</g>
	<g>
		<g>
			<rect x="34.449" y="8.203" fill="#282D33" width="19.798" height="3.998"/>
		</g>
	</g>
	<g>
		<rect x="41.928" y="106.091" fill="#282D33" width="4.837" height="3.998"/>
	</g>
	<g>
		<path fill="#282D33" d="M87.492,128l-0.556-0.161c-12.683-3.67-27.24-10.339-27.24-29.49V74.954l2.304,0.356
			c3.213,0.497,6.794,0.416,10.323-0.235c5.615-1.036,10.637-3.377,13.774-6.425l1.393-1.353l1.393,1.353
			c3.139,3.048,8.158,5.389,13.773,6.425c3.532,0.652,7.111,0.732,10.323,0.235l2.304-0.356v23.395
			c0,19.15-14.556,25.82-27.236,29.49L87.492,128z M63.694,79.528v18.82c0,12.896,7.125,20.542,23.798,25.488
			c16.671-4.947,23.795-12.593,23.795-25.488v-18.82c-3.019,0.236-6.201,0.06-9.354-0.522c-5.619-1.036-10.771-3.281-14.441-6.255
			c-3.67,2.974-8.822,5.22-14.442,6.255C69.897,79.588,66.715,79.768,63.694,79.528z"/>
	</g>
	<g>
		<path fill="#282D33" d="M87.491,112.432c-8.437,0-15.3-6.811-15.3-15.184c0-8.371,6.863-15.183,15.3-15.183
			c8.436,0,15.3,6.812,15.3,15.183C102.791,105.621,95.927,112.432,87.491,112.432z M87.491,86.063
			c-6.232,0-11.303,5.017-11.303,11.185s5.07,11.187,11.303,11.187s11.302-5.019,11.302-11.187S93.724,86.063,87.491,86.063z"/>
	</g>
	<g>
		<polygon fill="#282D33" points="86.76,103.409 80.767,99.58 82.92,96.211 85.894,98.112 91.584,91.041 94.697,93.548 		"/>
	</g>
	<g>
		<g>
			<g>
				<polygon fill="#282D33" points="33.46,47.726 30.647,44.886 41.202,34.434 51.754,44.886 48.941,47.726 41.202,40.06 				"/>
			</g>
		</g>
		<g>
			<path fill="#282D33" d="M58.404,62.483h-8.22c-6.188,0-11.222-4.998-11.222-11.141V40.098h3.998v11.244
				c0,3.938,3.241,7.143,7.224,7.143h8.22V62.483z"/>
		</g>
	</g>
	<g>
		<g>
			<g>
				<polygon fill="#282D33" points="99.97,61.743 89.415,51.29 92.228,48.45 99.97,56.117 107.712,48.45 110.524,51.29 				"/>
			</g>
		</g>
		<g>
			<path fill="#282D33" d="M102.207,56.079H98.21V44.835c0-3.94-3.241-7.145-7.227-7.145h-8.219v-3.998h8.219
				c6.188,0,11.224,4.998,11.224,11.142V56.079z"/>
		</g>
	</g>
</g>
</svg>
